<svg xmlns="http://www.w3.org/2000/svg" viewBox="0 0 1440 320"><path fill="#D5CEA3" fill-opacity="1" d="M0,128L30,133.3C60,139,120,149,180,138.7C240,128,300,96,360,96C420,96,480,128,540,128C600,128,660,96,720,80C780,64,840,64,900,74.7C960,85,1020,107,1080,117.3C1140,128,1200,128,1260,117.3C1320,107,1380,85,1410,74.7L1440,64L1440,320L1410,320C1380,320,1320,320,1260,320C1200,320,1140,320,1080,320C1020,320,960,320,900,320C840,320,780,320,720,320C660,320,600,320,540,320C480,320,420,320,360,320C300,320,240,320,180,320C120,320,60,320,30,320L0,320Z"></path></svg>